
<svg width="65.656" height="64.410" version="1.1" viewBox="-0.5040324799999851 0.0890664998367896 65.6561614315936 64.4100727001632" xml:space="preserve" xmlns="http://www.w3.org/2000/svg" xmlns:cc="http://creativecommons.org/ns#" xmlns:dc="http://purl.org/dc/elements/1.1/" xmlns:rdf="http://www.w3.org/1999/02/22-rdf-syntax-ns#"><metadata><rdf:RDF><cc:Work rdf:about=""><dc:format>image/svg+xml</dc:format><dc:type rdf:resource="http://purl.org/dc/dcmitype/StillImage"></dc:type><cc:license rdf:resource="http://creativecommons.org/licenses/by-sa/4.0/"></cc:license></cc:Work><cc:License rdf:about="http://creativecommons.org/licenses/by-sa/4.0/"><cc:permits rdf:resource="http://creativecommons.org/ns#Reproduction"></cc:permits><cc:permits rdf:resource="http://creativecommons.org/ns#Distribution"></cc:permits><cc:requires rdf:resource="http://creativecommons.org/ns#Notice"></cc:requires><cc:requires rdf:resource="http://creativecommons.org/ns#Attribution"></cc:requires><cc:permits rdf:resource="http://creativecommons.org/ns#DerivativeWorks"></cc:permits><cc:requires rdf:resource="http://creativecommons.org/ns#ShareAlike"></cc:requires></cc:License></rdf:RDF></metadata><g transform="translate(-30.558 -32)"><g transform="matrix(1.7016 0 0 1.7016 -237.69 -115.36)" fill="currentColor"><circle cx="166.69" cy="95.647" r="9.0478" stroke-width=".58767"></circle><rect x="158.41" y="107.8" width="16.412" height="16.412" rx="4.3765" ry="4.3765" stroke-width=".58767"></rect><path transform="matrix(.9259 .53457 .53457 -.9259 99.826 110.69)" d="m69.514 58.833h-1.7806-10.247a2.4441 2.4441 60 0 1-2.1167-3.6662l6.0139-10.416a2.4441 2.4441 2.522e-7 0 1 4.2333 0l6.0139 10.416a2.4441 2.4441 120 0 1-2.1167 3.6662z" stroke-width=".55348"></path><path d="m194.99 116.11c0 0.87946-0.70801 1.5875-1.5875 1.5875h-12.7c-0.87946 0-1.5875-0.70802-1.5875-1.5875s0.70802-1.5875 1.5875-1.5875h12.7c0.87946 0 1.5875 0.70801 1.5875 1.5875zm-7.9375-7.9375c0.87946 0 1.5875 0.70802 1.5875 1.5875v12.7c0 0.87946-0.70802 1.5875-1.5875 1.5875-0.87947 0-1.5875-0.70802-1.5875-1.5875v-12.7c0-0.87947 0.70802-1.5875 1.5875-1.5875z" stroke-width="5.8767"></path></g></g></svg>